<svg width="396" height="215.32277286364146" viewBox="0 0 350.00000000000006 190.3105315714003" class="looka-1j8o68f"><defs id="SvgjsDefs1164"></defs><g id="SvgjsG1165" featurekey="1p4tPl-0" transform="matrix(1.4841670797647764,0,0,1.4841670797647764,101.25545034730571,-21.692580636629682)" fill="#d72323"><g xmlns="http://www.w3.org/2000/svg"><path fill="#d72323" d="M59.737,71.692c-1.537-0.351-2.859-1.133-3.918-2.22c-0.563-0.563-1.065-1.2-1.521-1.879   c0.03-0.047,0.07-0.091,0.1-0.138c1.069-1.603,1.824-3.331,2.406-5.074l0.308-0.917l-0.545-0.793   c-0.604-0.881-1.144-1.273-1.938-1.696c-0.763-0.385-1.672-0.543-2.489-0.464c-1.664,0.156-2.824,0.955-3.734,1.717l-1.061,0.891   l0.377,1.17c0.611,1.888,1.391,3.477,2.398,5.068c-0.464,0.634-0.979,1.22-1.571,1.724c-1.106,0.952-2.485,1.585-4.051,1.859   c-1.565,0.26-3.272,0.193-4.98-0.204c1.396,1.084,3.142,1.778,5.02,1.979c1.875,0.223,3.921-0.204,5.659-1.198   c0.74-0.433,1.413-0.959,2.037-1.528c0.567,0.584,1.173,1.135,1.854,1.609c1.608,1.11,3.593,1.819,5.521,1.712   c1.928-0.053,3.671-0.801,5.111-1.795C63.002,71.909,61.279,72.03,59.737,71.692z"></path><path fill="#d72323" d="M82.463,73.273c-0.114-0.051-0.231-0.094-0.347-0.144c1.823-1.84,3.42-3.898,4.61-6.208   c0.113-0.223,0.207-0.455,0.313-0.682c0.917,0.006,1.834,0.008,2.754-0.026c2.343-0.069,4.691-0.243,7.059-0.705   c-2.295-0.743-4.604-1.198-6.922-1.552c-0.64-0.102-1.283-0.169-1.923-0.25c0.299-1.029,0.503-2.08,0.588-3.145   c0.063-0.9,0.018-1.799-0.085-2.688c0.416-0.093,0.835-0.168,1.248-0.27c2.214-0.528,4.412-1.156,6.571-2.068   c-2.327-0.275-4.614-0.27-6.886-0.164c-0.471,0.02-0.937,0.065-1.406,0.097c-0.133-0.461-0.278-0.916-0.453-1.358   c0.138,0.452,0.241,0.909,0.332,1.368c-1.757,0.114-3.508,0.285-5.248,0.528c-2.242,0.318-4.472,0.72-6.685,1.265   c-2.211,0.528-4.409,1.158-6.568,2.073c2.327,0.279,4.613,0.275,6.887,0.167c2.275-0.09,4.53-0.32,6.773-0.637   c1.708-0.246,3.406-0.563,5.098-0.93c0.039,1.935-0.287,3.857-0.951,5.658c-1.42-0.164-2.84-0.301-4.263-0.387   c-2.331-0.135-4.667-0.19-7.011-0.1c-2.342,0.071-4.69,0.243-7.058,0.701c2.295,0.74,4.604,1.193,6.922,1.548   c2.317,0.37,4.643,0.597,6.971,0.744c1.059,0.063,2.117,0.102,3.178,0.123c-0.039,0.066-0.071,0.139-0.111,0.204   c-1.393,2.318-3.247,4.298-5.31,6.039c-1.548-0.637-3.107-1.242-4.701-1.765c-2.251-0.759-4.542-1.423-6.948-1.827   c1.923,1.503,3.961,2.741,6.04,3.888c1.02,0.573,2.054,1.114,3.099,1.629c-0.401,0.277-0.788,0.575-1.199,0.837   c-7.156,4.553-15.659,6.966-24.027,7.005c-8.352-0.094-16.756-2.598-23.748-7.093c-0.677-0.442-1.331-0.919-1.978-1.398   c1.089-0.618,2.172-1.251,3.234-1.921c2.327-1.443,4.606-2.978,6.756-4.767c-2.701,0.723-5.269,1.7-7.792,2.767   c-1.526,0.634-3.021,1.33-4.504,2.045c-1.568-1.391-2.968-2.925-4.114-4.613c0.706-0.11,1.412-0.212,2.116-0.331   c2.421-0.46,4.834-0.954,7.218-1.614c2.387-0.645,4.757-1.385,7.077-2.408c-2.53-0.157-5.01-0.034-7.473,0.19   c-2.465,0.203-4.901,0.577-7.329,0.981c-1.033,0.196-2.061,0.403-3.089,0.623c-0.578-1.267-0.972-2.584-1.159-3.918   c0.119,0.002,0.237,0.006,0.357,0.008c2.641-0.03,5.283-0.091,7.925-0.323c2.642-0.213,5.284-0.526,7.926-1.126   c-2.642-0.601-5.284-0.913-7.926-1.127c-2.642-0.232-5.284-0.293-7.925-0.322c-0.14,0.002-0.28,0.007-0.419,0.009   c0.07-0.701,0.181-1.4,0.385-2.085c0.232-0.864,0.651-1.904,1.013-2.94l1.097-3.074c0.726-2.043,1.451-4.074,2.226-6.063   c1.274-3.259,2.724-6.405,4.612-9.148c0.324-0.368,0.628-0.757,0.96-1.117c0.987-1.108,2.004-2.185,3.053-3.227   c0.126-0.125,0.255-0.251,0.381-0.377c2.008-1.557,4.293-2.773,6.797-3.561c3.918-1.238,8.152-1.727,12.4-1.883   c4.23-0.208,8.399,0.26,12.355,1.602c3.954,1.321,7.591,3.568,10.702,6.431c6.327,5.725,10.416,13.63,13.646,21.649   c-1.221-4.173-2.756-8.275-4.776-12.168c-1.032-2.004-2.192-3.957-3.493-5.821c0.616,0.704,1.218,1.428,1.789,2.192   c-0.836-2.846-2.402-5.479-4.28-7.832c-0.958-1.16-1.956-2.304-3.077-3.323c-0.411-0.377-0.828-0.734-1.247-1.095   c1.938-1.001,3.875-2.006,5.776-3.079c2.164-1.17,4.297-2.397,6.424-3.635c0.025,0.65-0.012,1.387-0.104,2.138   c-0.247,1.782-0.581,3.648-0.996,5.5c-0.789,3.727-1.736,7.473-2.495,11.326c2.153-3.297,3.878-6.807,5.339-10.468   c0.696-1.845,1.374-3.713,1.789-5.736c0.207-1.021,0.396-2.053,0.398-3.272c-0.006-0.616-0.058-1.283-0.408-2.146   c-0.188-0.428-0.498-0.94-1.032-1.357c-0.528-0.423-1.229-0.638-1.787-0.667l-0.574-0.03l-0.534,0.289   c-2.701,1.459-5.37,2.974-8.012,4.536c-2.67,1.514-5.261,3.165-7.884,4.761l-1.346,0.819c-0.961-0.5-1.947-0.955-2.961-1.349   c-4.212-1.663-8.822-2.283-13.264-2.225c-4.421,0.004-8.927,0.362-13.33,1.674c-1.208,0.347-2.402,0.8-3.566,1.334   c-1.017-0.791-2.05-1.557-3.093-2.308c-1.146-0.819-2.267-1.676-3.431-2.466c-2.327-1.583-4.625-3.212-7.009-4.712l-0.595-0.374   l-0.634,0.034c-0.553,0.03-1.204,0.206-1.748,0.566c-0.545,0.353-0.943,0.84-1.177,1.268c-0.479,0.876-0.593,1.613-0.678,2.284   c-0.132,1.333,0.021,2.485,0.18,3.61c0.326,2.242,0.924,4.329,1.604,6.378c0.659,2.053,1.478,4.038,2.338,5.995   c0.476,1.053,0.978,2.093,1.506,3.122c-0.715,1.497-1.354,3.012-1.959,4.512c-0.817,2.053-1.566,4.109-2.308,6.153l-1.113,3.057   c-0.357,1.012-0.772,1.982-1.125,3.212c-0.291,1.035-0.449,2.106-0.519,3.186c-1.242,0.048-2.481,0.113-3.723,0.221   c-2.642,0.212-5.284,0.526-7.926,1.131c2.642,0.604,5.284,0.919,7.926,1.13c1.258,0.109,2.519,0.178,3.778,0.225   c0.049,0.478,0.102,0.952,0.194,1.421c0.239,1.199,0.605,2.357,1.072,3.463c-0.149,0.039-0.298,0.067-0.448,0.109   c-2.387,0.642-4.755,1.385-7.074,2.412c2.531,0.16,5.01,0.037,7.473-0.186c0.389-0.032,0.773-0.093,1.161-0.132   c0.185,0.322,0.364,0.648,0.564,0.96c1.181,1.816,2.585,3.42,4.106,4.879c-2.215,1.182-4.416,2.393-6.55,3.736   c-2.327,1.443-4.606,2.979-6.754,4.771c2.703-0.722,5.272-1.697,7.793-2.763c2.53-1.052,4.983-2.252,7.42-3.485   c0.144-0.076,0.283-0.157,0.426-0.232c1.138,0.904,2.308,1.759,3.527,2.521c7.731,4.703,16.684,7.267,25.709,7.021   c8.996-0.315,17.767-3.279,25.026-8.426c0.662-0.487,1.309-1.002,1.941-1.531c0.495,0.229,0.981,0.469,1.48,0.69   c2.165,0.95,4.363,1.822,6.621,2.566c2.251,0.757,4.543,1.42,6.949,1.82c-1.92-1.504-3.958-2.746-6.038-3.894   C86.757,75.259,84.628,74.229,82.463,73.273z M19.738,18.513c0.024-0.011,0.015,0.002-0.01,0.026   C19.73,18.536,19.736,18.515,19.738,18.513z M21.47,34.19l-1.165-6.182c-0.348-2.043-0.668-4.091-0.823-6.048   c-0.072-0.941-0.051-1.879,0.043-2.64c1.87,1.264,3.772,2.483,5.663,3.716c1.177,0.77,2.4,1.474,3.598,2.213   c0.6,0.37,1.216,0.717,1.821,1.076c-1.777,1.173-3.412,2.574-4.784,4.208c-1.583,1.85-2.85,3.869-3.933,5.95   C21.747,35.723,21.615,34.95,21.47,34.19z"></path><path fill="#d72323" d="M40.728,48.064c0-1.797-1.455-3.251-3.254-3.251c-1.791,0-3.248,1.455-3.248,3.251   c0,1.792,1.457,3.25,3.248,3.25C39.272,51.314,40.728,49.857,40.728,48.064z"></path><path fill="#d72323" d="M66.016,44.813c-1.795,0-3.25,1.455-3.25,3.251c0,1.792,1.455,3.25,3.25,3.25s3.251-1.458,3.251-3.25   C69.267,46.268,67.811,44.813,66.016,44.813z"></path></g></g><g id="SvgjsG1166" featurekey="dYASrj-0" transform="matrix(4.295304024272693,0,0,4.295304024272693,-1.0484836033628224,103.52349011943936)" fill="#d72323"><path d="M4.8535 20 c-1.6309 0 -2.6367 -0.97656 -2.6367 -2.6953 l0 -5.498 l-1.9727 0 l0 -1.4746 l0.71289 0 c1.0059 0 1.416 -0.41992 1.416 -1.543 l0 -1.6699 l1.7285 0 l0 3.2129 l2.1875 0 l0 1.4746 l-2.1875 0 l0 5.3027 c0 0.92773 0.53711 1.416 1.2988 1.416 l0.88867 0 l0 1.4746 l-1.4355 0 z M9.638653125 8.193 c-0.66406 0 -1.2305 -0.54688 -1.2305 -1.2207 s0.56641 -1.2109 1.2305 -1.2109 c0.6543 0 1.2109 0.53711 1.2109 1.2109 s-0.55664 1.2207 -1.2109 1.2207 z M8.681653125 20 l0 -9.668 l1.8848 0 l0 9.668 l-1.8848 0 z M18.69139375 10.1367 c2.041 0 3.3887 1.1816 3.3887 3.3496 l0 6.5137 l-1.8848 0 l0 -6.0938 c0 -1.5918 -0.94727 -2.207 -2.041 -2.207 c-1.2891 0 -2.3438 0.78125 -2.3535 2.5879 l0 5.7129 l-1.875 0 l0 -9.668 l1.875 0 l0 1.1914 c0.625 -0.87891 1.6406 -1.3867 2.8906 -1.3867 z M32.34371875 5 l1.875 0 l0 15 l-1.8066 0 l-0.048828 -1.7578 c-0.5957 1.2109 -1.875 1.9629 -3.3496 1.9629 c-2.4902 0 -4.5508 -1.9531 -4.5508 -5.0391 c0 -3.0664 2.0703 -5.0293 4.5508 -5.0293 c1.4551 0 2.7246 0.73242 3.3301 1.9141 l0 -7.0508 z M29.41401875 18.6035 c1.7188 0 3.0566 -1.4551 3.0566 -3.4375 c0 -1.9727 -1.3477 -3.4277 -3.0566 -3.4277 s-3.0762 1.3477 -3.0762 3.4277 s1.3672 3.4375 3.0762 3.4375 z M46.1524375 14.9805 l-0.029297 0.49805 l-7.4902 0 c0.068359 2.1387 1.416 3.1738 3.0176 3.1738 c1.1523 0 2.1094 -0.625 2.5977 -1.6699 l1.6992 0.33203 c-0.68359 1.7969 -2.3145 2.8711 -4.2773 2.8711 c-2.8711 0 -4.873 -1.8555 -4.873 -5.0195 s2.0508 -5.0293 4.8145 -5.0293 c2.627 0 4.5313 1.582 4.541 4.8438 z M41.6211375 11.5625 c-1.4941 0 -2.6172 0.80078 -2.9102 2.4902 l5.5566 0 c-0.15625 -1.6797 -1.2207 -2.4902 -2.6465 -2.4902 z M50.52735 12.011700000000001 c0.46875 -1.0254 1.6895 -1.7773 3.0762 -1.7871 l0 1.7383 c-1.9141 0 -3.0176 0.80078 -3.0176 2.9492 l0 5.0879 l-1.875 0 l0 -9.668 l1.8164 0 l0 1.6797 z M59.6191875 20.17578 c-2.8125 0 -4.8926 -2.002 -4.8926 -5.0195 s2.0801 -5.0195 4.8926 -5.0195 c2.1875 0 3.9063 1.1914 4.4824 3.2617 l-1.748 0.26367 c-0.42969 -1.2891 -1.4746 -1.9824 -2.7539 -1.9824 c-1.7188 0 -2.998 1.3672 -2.998 3.4766 c0 2.0996 1.2793 3.4766 2.998 3.4766 c1.2793 0 2.3242 -0.69336 2.7539 -1.9824 l1.748 0.26367 c-0.57617 2.0605 -2.3242 3.2617 -4.4824 3.2617 z M68.759784375 20.18555 c-1.5918 0 -2.959 -0.78125 -2.959 -2.6465 c0 -2.0215 1.6016 -2.6855 3.6719 -3.0469 l1.5234 -0.26367 c0.61523 -0.11719 0.87891 -0.41016 0.87891 -0.88867 c0 -1.3281 -0.99609 -1.7969 -2.0508 -1.7969 c-1.1133 0 -2.0313 0.49805 -2.1777 1.7676 l-1.6895 -0.3418 c0.3125 -1.9043 1.7285 -2.8125 3.9551 -2.8125 c1.9434 0 3.7695 0.77148 3.7695 3.3691 l0 3.916 c0 0.99609 0.2832 1.2402 0.9668 1.2402 l0.14648 0 l0 1.3184 l-0.9082 0 c-1.0156 0 -1.6797 -0.40039 -1.875 -1.2988 l-0.087891 0 c-0.77148 1.0645 -1.9824 1.4844 -3.1641 1.4844 z M69.189484375 18.6914 c1.6406 0 2.8223 -1.25 2.8223 -3.3008 l-2.5293 0.51758 c-1.2012 0.20508 -1.8555 0.60547 -1.8555 1.4844 c0 0.91797 0.69336 1.2988 1.5625 1.2988 z M80.292953125 20 c-1.6309 0 -2.6367 -0.97656 -2.6367 -2.6953 l0 -5.498 l-1.9727 0 l0 -1.4746 l0.71289 0 c1.0059 0 1.416 -0.41992 1.416 -1.543 l0 -1.6699 l1.7285 0 l0 3.2129 l2.1875 0 l0 1.4746 l-2.1875 0 l0 5.3027 c0 0.92773 0.53711 1.416 1.2988 1.416 l0.88867 0 l0 1.4746 l-1.4355 0 z"></path></g></svg>